<svg data-v-423bf9ae="" xmlns="http://www.w3.org/2000/svg" viewBox="0 0 458.5634118967452 60" class="font"><!----><!----><!----><g data-v-423bf9ae="" id="1ccc9d78-1794-4790-9869-bc12147569e2" fill="white" transform="matrix(5.746352195739746,0,0,5.746352195739746,-2.1773183345794678,0.0000011343508958816528)"><path d="M7.24 10.08L7.24 8.40C6.52 8.64 5.78 8.76 5.00 8.76C3.26 8.76 2.42 7.90 2.42 6.06C2.42 4.23 3.26 3.36 5.00 3.36C5.32 3.36 5.63 3.37 5.94 3.42L6.64 4.40L7.24 4.40L7.24 2.04C6.64 1.85 5.70 1.68 5.00 1.68C1.99 1.68 0.38 3.43 0.38 6.06C0.38 8.69 1.99 10.44 5.00 10.44C5.70 10.44 6.64 10.28 7.24 10.08ZM14.80 7C14.80 4.96 13.57 3.54 11.44 3.54C9.32 3.54 8.08 4.96 8.08 7C8.08 9.03 9.32 10.44 11.44 10.44C13.57 10.44 14.80 9.03 14.80 7ZM12.84 7C12.84 8.22 12.33 8.86 11.44 8.86C10.56 8.86 10.04 8.22 10.04 7C10.04 5.77 10.56 5.12 11.44 5.12C12.33 5.12 12.84 5.77 12.84 7ZM23.21 10.26L23.21 8.72C23.02 8.79 22.79 8.86 22.55 8.86C22.23 8.86 22.09 8.74 22.09 8.39L22.09 0L20.22 0L20.22 3.67C19.94 3.61 19.49 3.54 19.10 3.54C16.98 3.54 15.74 4.96 15.74 7C15.74 9.03 16.98 10.44 19.10 10.44C19.71 10.44 20.24 10.29 20.75 10.04C21.07 10.32 21.52 10.44 22.09 10.44C22.47 10.44 22.92 10.36 23.21 10.26ZM20.22 8.64C19.85 8.79 19.54 8.86 19.10 8.86C18.21 8.86 17.70 8.22 17.70 7C17.70 5.77 18.21 5.12 19.10 5.12C19.50 5.12 19.91 5.18 20.22 5.26ZM30.03 7C30.03 4.93 28.91 3.54 26.89 3.54C24.92 3.54 23.67 4.93 23.67 7C23.67 9.14 25.10 10.44 27.51 10.44C28.15 10.44 28.88 10.30 29.47 10.09L29.47 8.51C28.87 8.71 28.21 8.86 27.51 8.86C26.52 8.86 25.77 8.50 25.61 7.64L29.99 7.64C30.02 7.43 30.03 7.22 30.03 7ZM28.18 6.16L25.63 6.16C25.75 5.45 26.25 5.01 26.89 5.01C27.55 5.01 28.06 5.38 28.18 6.16ZM42.87 10.26L40.50 7.08C41.50 6.68 42.07 5.82 42.07 4.62C42.07 2.87 40.87 1.86 38.89 1.86L35.39 1.86L35.73 3.16L35.73 10.26L37.59 10.26L37.59 7.36L38.53 7.36L40.60 10.26ZM40.11 4.62C40.11 5.40 39.66 5.78 38.89 5.78L37.59 5.78L37.59 3.44L38.89 3.44C39.66 3.44 40.11 3.82 40.11 4.62ZM49.45 7C49.45 4.93 48.33 3.54 46.31 3.54C44.34 3.54 43.09 4.93 43.09 7C43.09 9.14 44.52 10.44 46.93 10.44C47.57 10.44 48.30 10.30 48.89 10.09L48.89 8.51C48.29 8.71 47.63 8.86 46.93 8.86C45.93 8.86 45.19 8.50 45.02 7.64L49.41 7.64C49.43 7.43 49.45 7.22 49.45 7ZM47.60 6.16L45.05 6.16C45.16 5.45 45.67 5.01 46.31 5.01C46.97 5.01 47.47 5.38 47.60 6.16ZM56.91 3.72L53.73 3.72L53.73 4.34L54.47 4.86L53.41 7.88L51.94 3.72L49.91 3.72L52.54 10.26L54.28 10.26ZM59.81 1.40C59.81 0.83 59.35 0.36 58.77 0.36C58.21 0.36 57.75 0.83 57.75 1.40C57.75 1.96 58.21 2.42 58.77 2.42C59.35 2.42 59.81 1.96 59.81 1.40ZM60.69 10.26L60.69 9.66L59.71 8.96L59.71 3.72L57.85 3.72L57.85 10.26ZM67.55 7C67.55 4.93 66.43 3.54 64.41 3.54C62.44 3.54 61.19 4.93 61.19 7C61.19 9.14 62.62 10.44 65.03 10.44C65.67 10.44 66.40 10.30 66.99 10.09L66.99 8.51C66.39 8.71 65.73 8.86 65.03 8.86C64.04 8.86 63.29 8.50 63.13 7.64L67.51 7.64C67.54 7.43 67.55 7.22 67.55 7ZM65.70 6.16L63.15 6.16C63.27 5.45 63.77 5.01 64.41 5.01C65.07 5.01 65.58 5.38 65.70 6.16ZM80.18 3.72L77.01 3.72L77.01 4.34L77.74 4.86L76.68 7.88L75.01 3.72L71.99 3.72L71.99 4.34L72.73 4.86L71.51 7.88L70.04 3.72L68.01 3.72L70.64 10.26L72.38 10.26L74.10 6.01L75.81 10.26L77.55 10.26Z"></path></g><!----><!----></svg>