<svg data-v-423bf9ae="" xmlns="http://www.w3.org/2000/svg" viewBox="0 0 458.5634118967452 163" class="iconAbove"><!----><!----><!----><g data-v-423bf9ae="" id="812b9b7a-5b46-495b-953f-c15367fa095f" fill="white" transform="matrix(5.746352195739746,0,0,5.746352195739746,-2.1773183345794678,103)"><path d="M7.24 10.08L7.24 8.40C6.52 8.64 5.78 8.76 5.00 8.76C3.26 8.76 2.42 7.90 2.42 6.06C2.42 4.23 3.26 3.36 5.00 3.36C5.32 3.36 5.63 3.37 5.94 3.42L6.64 4.40L7.24 4.40L7.24 2.04C6.64 1.85 5.70 1.68 5.00 1.68C1.99 1.68 0.38 3.43 0.38 6.06C0.38 8.69 1.99 10.44 5.00 10.44C5.70 10.44 6.64 10.28 7.24 10.08ZM14.80 7C14.80 4.96 13.57 3.54 11.44 3.54C9.32 3.54 8.08 4.96 8.08 7C8.08 9.03 9.32 10.44 11.44 10.44C13.57 10.44 14.80 9.03 14.80 7ZM12.84 7C12.84 8.22 12.33 8.86 11.44 8.86C10.56 8.86 10.04 8.22 10.04 7C10.04 5.77 10.56 5.12 11.44 5.12C12.33 5.12 12.84 5.77 12.84 7ZM23.21 10.26L23.21 8.72C23.02 8.79 22.79 8.86 22.55 8.86C22.23 8.86 22.09 8.74 22.09 8.39L22.09 0L20.22 0L20.22 3.67C19.94 3.61 19.49 3.54 19.10 3.54C16.98 3.54 15.74 4.96 15.74 7C15.74 9.03 16.98 10.44 19.10 10.44C19.71 10.44 20.24 10.29 20.75 10.04C21.07 10.32 21.52 10.44 22.09 10.44C22.47 10.44 22.92 10.36 23.21 10.26ZM20.22 8.64C19.85 8.79 19.54 8.86 19.10 8.86C18.21 8.86 17.70 8.22 17.70 7C17.70 5.77 18.21 5.12 19.10 5.12C19.50 5.12 19.91 5.18 20.22 5.26ZM30.03 7C30.03 4.93 28.91 3.54 26.89 3.54C24.92 3.54 23.67 4.93 23.67 7C23.67 9.14 25.10 10.44 27.51 10.44C28.15 10.44 28.88 10.30 29.47 10.09L29.47 8.51C28.87 8.71 28.21 8.86 27.51 8.86C26.52 8.86 25.77 8.50 25.61 7.64L29.99 7.64C30.02 7.43 30.03 7.22 30.03 7ZM28.18 6.16L25.63 6.16C25.75 5.45 26.25 5.01 26.89 5.01C27.55 5.01 28.06 5.38 28.18 6.16ZM42.87 10.26L40.50 7.08C41.50 6.68 42.07 5.82 42.07 4.62C42.07 2.87 40.87 1.86 38.89 1.86L35.39 1.86L35.73 3.16L35.73 10.26L37.59 10.26L37.59 7.36L38.53 7.36L40.60 10.26ZM40.11 4.62C40.11 5.40 39.66 5.78 38.89 5.78L37.59 5.78L37.59 3.44L38.89 3.44C39.66 3.44 40.11 3.82 40.11 4.62ZM49.45 7C49.45 4.93 48.33 3.54 46.31 3.54C44.34 3.54 43.09 4.93 43.09 7C43.09 9.14 44.52 10.44 46.93 10.44C47.57 10.44 48.30 10.30 48.89 10.09L48.89 8.51C48.29 8.71 47.63 8.86 46.93 8.86C45.93 8.86 45.19 8.50 45.02 7.64L49.41 7.64C49.43 7.43 49.45 7.22 49.45 7ZM47.60 6.16L45.05 6.16C45.16 5.45 45.67 5.01 46.31 5.01C46.97 5.01 47.47 5.38 47.60 6.16ZM56.91 3.72L53.73 3.72L53.73 4.34L54.47 4.86L53.41 7.88L51.94 3.72L49.91 3.72L52.54 10.26L54.28 10.26ZM59.81 1.40C59.81 0.83 59.35 0.36 58.77 0.36C58.21 0.36 57.75 0.83 57.75 1.40C57.75 1.96 58.21 2.42 58.77 2.42C59.35 2.42 59.81 1.96 59.81 1.40ZM60.69 10.26L60.69 9.66L59.71 8.96L59.71 3.72L57.85 3.72L57.85 10.26ZM67.55 7C67.55 4.93 66.43 3.54 64.41 3.54C62.44 3.54 61.19 4.93 61.19 7C61.19 9.14 62.62 10.44 65.03 10.44C65.67 10.44 66.40 10.30 66.99 10.09L66.99 8.51C66.39 8.71 65.73 8.86 65.03 8.86C64.04 8.86 63.29 8.50 63.13 7.64L67.51 7.64C67.54 7.43 67.55 7.22 67.55 7ZM65.70 6.16L63.15 6.16C63.27 5.45 63.77 5.01 64.41 5.01C65.07 5.01 65.58 5.38 65.70 6.16ZM80.18 3.72L77.01 3.72L77.01 4.34L77.74 4.86L76.68 7.88L75.01 3.72L71.99 3.72L71.99 4.34L72.73 4.86L71.51 7.88L70.04 3.72L68.01 3.72L70.64 10.26L72.38 10.26L74.10 6.01L75.81 10.26L77.55 10.26Z"></path></g><!----><g data-v-423bf9ae="" id="087e6cbc-5f79-4f3e-8a40-3148a09dd4f6" transform="matrix(1.002741813659668,0,0,1.002741813659668,179.8629150390625,-5.014038562774658)" stroke="none" fill="white"><path style="block-progression:tb;text-indent:0;text-transform:none" d="M51 5.125a40.845 40.845 0 0 0-31.312 15.281c-.243-.012-.474-.031-.719-.031C11.283 20.375 5 26.658 5 34.344c0 4.649 2.296 8.77 5.812 11.312-.096 13.406 6.225 26.59 18.219 34.469 2.869 1.885 5.916 3.249 9.031 4.281 1.568 5.997 7.028 10.469 13.5 10.469 6.508 0 11.998-4.516 13.532-10.563 8.078-2.819 15.361-8.076 20.437-15.718l5.594 3.687.656-12.781.688-12.75-11.375 5.812-11.375 5.782 6 3.937c-3.286 4.89-7.813 8.382-12.844 10.5-2.54-3.531-6.652-5.843-11.313-5.843a13.999 13.999 0 0 0-11.374 5.843c-1.613-.64-3.208-1.413-4.719-2.406-8.003-5.257-12.528-13.677-13.094-22.5 6.053-1.529 10.563-7.019 10.563-13.531 0-3.059-1.006-5.881-2.688-8.188 9.529-10.263 25.163-12.553 37.281-4.594.113.074.204.172.313.25a13.918 13.918 0 0 0-.782 4.594c0 7.686 6.283 13.969 13.969 13.969S95 34.092 95 26.406s-6.283-13.968-13.969-13.968a13.91 13.91 0 0 0-5.031.937 23.513 23.513 0 0 0-2.062-1.531C66.882 7.209 58.88 5.017 51 5.125zm30.031 11.969a9.278 9.278 0 0 1 9.313 9.312 9.29 9.29 0 0 1-2.219 6.032c-.516-.583-1.109-.839-1.656-.969-.907-.982-.688-4.844-.688-4.844.012-.065.024-.121.031-.187 0 0 1.236-4.217-2.062-5.719 0 0-.606-.139-1.062-.031a3.87 3.87 0 0 0-.907-.126c-.084 0-.142.026-.219.032-.078-.006-.169-.032-.25-.032-.36 0-.754.067-1.156.188l-.031.031c-1.067.373-2.881 1.794-2.594 4.625-.008.01-.024.022-.031.032-.297.373-.246.884-.156 1.312.025.882.083 3.377-.156 4.625-.082.017-.173.017-.25.031-.784.14-1.732.478-2.407 1.688a9.281 9.281 0 0 1-2.812-6.688 9.277 9.277 0 0 1 9.312-9.312zm2.438 6.562c.127.356.494 1.246 1.093 1.938v.812l.188-.625.031.031v.032c.092.088.212.144.313.218.015.13-.028.341-.094.626-.222.957-.598 1-.688 1 0 0-.049.907-.874 1.874v.032c-.643.654-1.312.962-1.969.937-.818-.034-1.461-.599-1.781-.937-.843-.977-.876-1.906-.876-1.906h-.031c-.049 0-.194-.014-.343-.188l-.157-.281a2.5 2.5 0 0 1-.187-.531c-.12-.519-.088-.73 0-.813.179.012.356.006.531 0l.219 1.187.25-1.218c.246-.031.484-.067.718-.125 1.008-.251 1.892-.761 2.563-1.219a10.2 10.2 0 0 0 1.094-.844zm-64.5 1.375a9.278 9.278 0 0 1 9.312 9.313 9.28 9.28 0 0 1-2.969 6.844c-.59-1.027-1.386-1.394-2.093-1.563-.907-.982-.688-4.844-.688-4.844.012-.064.024-.152.031-.219 0 0 1.236-4.185-2.062-5.687 0 0-.606-.139-1.062-.031a3.92 3.92 0 0 0-.907-.125c-.084 0-.142-.006-.219 0-.078-.006-.169 0-.25 0-.36 0-.754.067-1.156.187h-.031c-1.067.373-2.881 1.794-2.594 4.625-.008.01.007.022 0 .031-.297.374-.277.885-.187 1.313.025.882.083 3.377-.156 4.625-.082.017-.173.048-.25.062-.57.102-1.207.31-1.782.876a9.31 9.31 0 0 1-2.25-6.094 9.279 9.279 0 0 1 9.313-9.313zm64.437 5.5c.003.263.016.5.063.625.151.406 1.883.842 2.593.969.441.079.919.212 1.376.656-2.015.709-3.805 1.017-5.376 1.094l-.468.469-.469-.438c-3.423-.022-5.465-1.123-5.469-1.125.457-.444.966-.577 1.406-.656.71-.127 2.443-.563 2.594-.969.047-.122.06-.338.063-.594.434.326 1.019.626 1.719.657.038.002.086 0 .124 0 .632 0 1.252-.235 1.844-.688zm-63.187 1.25c.127.356.494 1.246 1.093 1.938v.843l.188-.624c.006.004.026-.006.031 0v.031c.092.088.212.176.313.25.015.13.003.309-.063.593-.222.958-.598 1.032-.687 1.032h-.032s-.049.876-.874 1.844v.031c-.643.654-1.312.993-1.969.969-.818-.035-1.461-.6-1.781-.938v-.031c-.843-.977-.876-1.875-.876-1.875h-.031c-.049 0-.194-.014-.343-.188l-.157-.281a2.857 2.857 0 0 1-.187-.563c-.12-.518-.056-.729.031-.812.179.012.325.037.5.031l.25 1.157.219-1.219c.246-.031.484-.067.718-.125 1.008-.251 1.892-.73 2.563-1.188a9.672 9.672 0 0 0 1.094-.875zm32.969.125l-4.907 27.5h1.344l4.906-27.5h-1.343zm-7 5.594l-10.969 7.812v2.063l10.969 7.813v-2.594l-8.969-6.25 8.969-6.282V37.5zm9.968 0v2.562l8.969 6.282-8.969 6.25v2.594l10.969-7.813v-2.063L56.156 37.5zm-36 1.188c.003.263.016.5.063.624.151.406 1.883.842 2.593.969.441.079.95.213 1.407.657-2.015.708-3.836 1.017-5.407 1.093l-.468.469-.469-.469c-3.423-.022-5.433-1.091-5.437-1.093.456-.444.934-.578 1.374-.657.71-.126 2.443-.563 2.594-.969.047-.121.06-.338.063-.593.434.326 1.019.625 1.719.656.038.002.086 0 .124 0 .632 0 1.252-.235 1.844-.687zm31.406 32.906a9.278 9.278 0 0 1 9.313 9.312 9.263 9.263 0 0 1-2.937 6.782c-.538-.426-1.141-.596-1.657-.688-.796-.143-1.773-.432-2.125-.625a7.652 7.652 0 0 1 0-1.031c.02-.022.043-.04.063-.063.471-.631.68-1.224.781-1.625.304-.214.625-.629.812-1.437.109-.469.212-1.077-.124-1.5-.008-.01-.023-.021-.032-.031.301-2.968-1.601-4.454-2.718-4.844h-.032a4.342 4.342 0 0 0-1.187-.188h-.031c-.089 0-.17-.006-.25 0-.082-.007-.166 0-.25 0-.379 0-.767.061-1.188.188h-.031c-1.118.39-3.02 1.876-2.719 4.844-.009.01-.024.021-.031.031-.337.423-.265 1.031-.157 1.5.189.808.508 1.223.813 1.437.1.398.319.968.781 1.594v.031c.027.036.066.058.094.094.03.508.014.833 0 1-.353.192-1.33.483-2.125.625-.477.085-1.028.234-1.531.594a9.253 9.253 0 0 1-2.844-6.688 9.278 9.278 0 0 1 9.312-9.312zm-1.874 7.594s1.576 1.616 3.531 1.968c0 0-.429-.763-.781-1.468 0 0 1.137 1.257 2.124 1.468 0 0 .146-.184.313-.5-.017.167-.028.32-.063.5 0 0 .061-.031.126-.031.139 0 .306.127.124.906-.232 1.004-.625 1.063-.718 1.063 0 0-.072.954-.938 1.968v.032c-.673.685-1.342.994-2.031.968-.857-.035-1.539-.614-1.875-.968-.883-1.023-.938-2-.938-2h-.031c-.094 0-.486-.06-.719-1.063-.181-.779.017-.906.157-.906.064 0 .125.031.125.031l.344 1s-.232-2.757 1.25-2.968zm3.687 6.906c.003.275.013.525.063.656.074.198.513.388 1.031.562-.752.737-1.835 1.219-3.031 1.219s-2.249-.483-3-1.219c.516-.175.957-.364 1.031-.562.048-.128.059-.357.062-.625.456.342 1.049.655 1.781.687.041.002.085 0 .126 0 .661 0 1.316-.244 1.937-.718z" color="#000"></path></g><!----></svg>